<svg width="264" height="56" viewBox="0 0 264 56" fill="none" xmlns="http://www.w3.org/2000/svg">
<rect width="52" height="52" fill="url(#paint0_linear_692_318)"/>
<path d="M16.48 18.6V32.16C16.48 34.08 17.52 35 19.56 35H43.2V40H16.92C12.2 40 9.8 37.88 9.8 33.68V17.08C9.8 12.88 12.2 10.76 16.92 10.76H43.2V15.76H19.56C17.52 15.76 16.48 16.72 16.48 18.6Z" fill="white"/>
<path d="M69.688 9.16V17.296C69.688 18.448 70.312 19 71.536 19H85.72V22H69.952C67.12 22 65.68 20.728 65.68 18.208V8.248C65.68 5.728 67.12 4.456 69.952 4.456H85.72V7.456H71.536C70.312 7.456 69.688 8.032 69.688 9.16ZM107.128 13.312H92.8476V22H88.8396V4.456H92.8476V10.768H107.128V4.456H111.16V22H107.128V13.312ZM114.785 22V4.456H131.345C134.513 4.456 136.073 5.872 136.073 8.728V11.08C136.073 13.816 134.633 15.232 131.753 15.352L136.937 21.832V22H132.497L127.241 15.352H118.793V22H114.785ZM132.113 10.84V9.328C132.113 8.032 131.441 7.384 130.073 7.384H118.793V12.784H130.073C131.441 12.784 132.113 12.136 132.113 10.84ZM154.493 7.456H145.205C143.837 7.456 143.165 8.08 143.165 9.376V17.08C143.165 18.352 143.837 19 145.205 19H154.493C155.861 19 156.533 18.376 156.533 17.08V9.376C156.533 8.08 155.861 7.456 154.493 7.456ZM155.813 22H143.885C140.717 22 139.157 20.584 139.157 17.728V8.728C139.157 5.872 140.717 4.456 143.885 4.456H155.813C158.981 4.456 160.541 5.872 160.541 8.728V17.728C160.541 20.584 158.981 22 155.813 22ZM183.202 4.456H186.754V19.936C186.754 21.328 186.034 22 184.594 22H182.602C181.81 22 181.162 21.736 180.706 21.16L167.602 7.6V22H164.026V6.52C164.026 5.128 164.746 4.456 166.186 4.456H168.178C168.97 4.456 169.618 4.72 170.074 5.296L183.202 18.904V4.456ZM194.379 4.456V22H190.371V4.456H194.379ZM201.899 9.16V17.296C201.899 18.448 202.523 19 203.747 19H217.931V22H202.163C199.331 22 197.891 20.728 197.891 18.208V8.248C197.891 5.728 199.331 4.456 202.163 4.456H217.931V7.456H203.747C202.523 7.456 201.899 8.032 201.899 9.16ZM221.051 4.456H225.059V19H239.387V22H221.051V4.456ZM246.035 7.456V10.768H258.923V13.312H246.035V19H262.331V22H242.027V4.456H262.331V7.456H246.035ZM67.328 36.304L73.248 46.016L79.152 36.304H82.096V36.416L75.184 47.44C74.96 47.84 74.592 48 74.144 48H72.336C71.888 48 71.536 47.84 71.296 47.44L64.368 36.416V36.304H67.328ZM86.3568 38.304V40.512H94.9488V42.208H86.3568V46H97.2208V48H83.6848V36.304H97.2208V38.304H86.3568ZM99.2941 48V36.304H110.334C112.446 36.304 113.486 37.248 113.486 39.152V40.72C113.486 42.544 112.526 43.488 110.606 43.568L114.062 47.888V48H111.102L107.598 43.568H101.966V48H99.2941ZM110.846 40.56V39.552C110.846 38.688 110.398 38.256 109.486 38.256H101.966V41.856H109.486C110.398 41.856 110.846 41.424 110.846 40.56ZM119.03 40.512H125.718C127.862 40.512 128.934 41.456 128.934 43.36V45.152C128.934 47.056 127.862 48 125.718 48H115.382V46H124.87C125.814 46 126.294 45.568 126.294 44.72V43.504C126.294 42.64 125.814 42.208 124.87 42.208H118.182C116.294 42.208 115.35 41.424 115.35 39.856V38.656C115.35 37.088 116.294 36.304 118.182 36.304H128.502V38.304H119.03C118.342 38.304 117.974 38.56 117.974 39.072V39.712C117.974 40.24 118.342 40.512 119.03 40.512ZM133.701 38.304V40.512H142.293V42.208H133.701V46H144.565V48H131.029V36.304H144.565V38.304H133.701Z" fill="white"/>
<defs>
<linearGradient id="paint0_linear_692_318" x1="0" y1="0" x2="52" y2="52" gradientUnits="userSpaceOnUse">
<stop stop-color="#730C9C"/>
<stop offset="1" stop-color="#C100A2"/>
</linearGradient>
</defs>
</svg>
